<svg width="173" height="26" viewBox="0 0 173 26" fill="none" xmlns="http://www.w3.org/2000/svg">
<path d="M11.7975 15.652L11.4615 16.604L0.205531 12.096V11.312L11.4615 6.804L11.7975 7.728L1.82953 11.676L11.7975 15.652ZM19.6345 2.66V1.96H25.7665V2.66L24.2265 2.8C23.9278 2.81867 23.7505 2.89333 23.6945 3.024C23.6385 3.136 23.6105 3.51867 23.6105 4.172V15.344C23.6105 16.3333 23.4705 17.2853 23.1905 18.2C22.9105 19.1147 22.4251 19.8613 21.7345 20.44C21.0625 21 20.1198 21.28 18.9065 21.28C18.2905 21.28 17.6745 21.168 17.0585 20.944C16.4425 20.72 15.9198 20.328 15.4905 19.768C15.0611 19.1893 14.7998 18.396 14.7065 17.388L16.1065 16.968C16.1438 17.9387 16.3025 18.676 16.5825 19.18C16.8625 19.6653 17.2078 20.0013 17.6185 20.188C18.0291 20.356 18.4398 20.44 18.8505 20.44C19.4478 20.44 19.9611 20.2907 20.3905 19.992C20.8385 19.6933 21.1838 19.1707 21.4265 18.424C21.6691 17.6773 21.7905 16.6507 21.7905 15.344V4.172C21.7905 3.51867 21.7625 3.136 21.7065 3.024C21.6505 2.89333 21.4731 2.81867 21.1745 2.8L19.6345 2.66ZM41.8037 20.3V21H38.0797V18.816C37.333 19.6747 36.5397 20.3 35.6997 20.692C34.8784 21.084 34.057 21.28 33.2357 21.28C31.9104 21.28 30.893 20.8693 30.1837 20.048C29.493 19.208 29.1477 18.032 29.1477 16.52V9.576C29.1477 8.92267 29.1197 8.54 29.0637 8.428C29.0077 8.29733 28.8304 8.22267 28.5317 8.204L26.9917 8.064V7.364H30.8277V16.492C30.8277 17.9293 31.0517 18.928 31.4997 19.488C31.9664 20.048 32.629 20.328 33.4877 20.328C34.1784 20.328 34.897 20.1507 35.6437 19.796C36.409 19.4227 37.1837 18.7507 37.9677 17.78V9.576C37.9677 8.92267 37.9397 8.54 37.8837 8.428C37.8277 8.29733 37.6504 8.22267 37.3517 8.204L35.2517 8.064V7.364H39.6477V18.788C39.6477 19.4413 39.6757 19.824 39.7317 19.936C39.7877 20.048 39.965 20.1227 40.2637 20.16L41.8037 20.3ZM55.488 21.14C54.8534 21.14 54.3307 20.9627 53.92 20.608C53.5094 20.2347 53.2574 19.7213 53.164 19.068C52.4734 19.852 51.7267 20.4213 50.924 20.776C50.1214 21.112 49.328 21.28 48.544 21.28C47.2374 21.28 46.276 20.916 45.66 20.188C45.0627 19.4413 44.764 18.5733 44.764 17.584C44.764 16.4827 45.128 15.624 45.856 15.008C46.584 14.392 47.8254 14.084 49.58 14.084H53.136V11.816C53.136 10.3227 52.8467 9.30533 52.268 8.764C51.6894 8.204 50.9054 7.924 49.916 7.924C49.2814 7.924 48.7214 8.036 48.236 8.26C47.7507 8.46533 47.396 8.85733 47.172 9.436C46.948 9.996 46.892 10.808 47.004 11.872L45.38 11.592C45.268 10.2853 45.604 9.212 46.388 8.372C47.172 7.51333 48.3667 7.084 49.972 7.084C51.26 7.084 52.2494 7.308 52.94 7.756C53.6494 8.18533 54.1347 8.764 54.396 9.492C54.676 10.2013 54.816 10.976 54.816 11.816V18.004C54.816 18.956 54.9374 19.5533 55.18 19.796C55.4414 20.0387 55.7214 20.16 56.02 20.16C56.1694 20.16 56.3467 20.1227 56.552 20.048C56.7574 19.9733 56.9627 19.8427 57.168 19.656L57.672 20.328C57.4107 20.5707 57.1027 20.7667 56.748 20.916C56.3934 21.0653 55.9734 21.14 55.488 21.14ZM49.02 20.3C49.5614 20.3 50.1774 20.1507 50.868 19.852C51.5774 19.5533 52.3334 18.8907 53.136 17.864V14.924H49.804C48.6654 14.924 47.8347 15.1293 47.312 15.54C46.7894 15.932 46.528 16.5667 46.528 17.444C46.528 18.34 46.7334 19.04 47.144 19.544C47.5547 20.048 48.18 20.3 49.02 20.3ZM74.3038 20.3V21H68.3118V20.3L69.8518 20.16C70.1505 20.1227 70.3278 20.048 70.3838 19.936C70.4398 19.824 70.4678 19.4413 70.4678 18.788V11.872C70.4678 10.4347 70.2251 9.436 69.7398 8.876C69.2545 8.316 68.5638 8.036 67.6678 8.036C66.9585 8.036 66.2118 8.21333 65.4278 8.568C64.6438 8.92267 63.8505 9.59467 63.0478 10.584V18.788C63.0478 19.4413 63.0758 19.824 63.1318 19.936C63.1878 20.048 63.3651 20.1227 63.6638 20.16L65.2038 20.3V21H59.2118V20.3L60.7518 20.16C61.0505 20.1227 61.2278 20.048 61.2838 19.936C61.3398 19.824 61.3678 19.4413 61.3678 18.788V9.576C61.3678 8.92267 61.3398 8.54 61.2838 8.428C61.2278 8.29733 61.0505 8.22267 60.7518 8.204L59.2118 8.064V7.364H62.9358V9.548C63.7011 8.67067 64.5038 8.04533 65.3438 7.672C66.2025 7.28 67.0611 7.084 67.9198 7.084C69.3011 7.084 70.3465 7.504 71.0558 8.344C71.7838 9.16533 72.1478 10.332 72.1478 11.844V18.788C72.1478 19.4413 72.1758 19.824 72.2318 19.936C72.2878 20.048 72.4651 20.1227 72.7638 20.16L74.3038 20.3ZM88.2837 16.492H88.9837V21H76.6357V20.3L78.1757 20.16C78.4744 20.1227 78.6517 20.048 78.7077 19.936C78.7637 19.824 78.7917 19.4413 78.7917 18.788V4.172C78.7917 3.51867 78.7637 3.136 78.7077 3.024C78.6517 2.89333 78.4744 2.81867 78.1757 2.8L76.6357 2.66V1.96H82.7677V2.66L81.2277 2.8C80.929 2.81867 80.7517 2.89333 80.6957 3.024C80.6397 3.136 80.6117 3.51867 80.6117 4.172V20.16H86.0157C86.669 20.16 87.061 20.1227 87.1917 20.048C87.341 19.9547 87.453 19.7493 87.5277 19.432L88.2837 16.492ZM104.913 20.3V21H101.189V18.816C100.442 19.6747 99.6491 20.3 98.8091 20.692C97.9877 21.084 97.1664 21.28 96.3451 21.28C95.0197 21.28 94.0024 20.8693 93.2931 20.048C92.6024 19.208 92.2571 18.032 92.2571 16.52V9.576C92.2571 8.92267 92.2291 8.54 92.1731 8.428C92.1171 8.29733 91.9397 8.22267 91.6411 8.204L90.1011 8.064V7.364H93.9371V16.492C93.9371 17.9293 94.1611 18.928 94.6091 19.488C95.0757 20.048 95.7384 20.328 96.5971 20.328C97.2877 20.328 98.0064 20.1507 98.7531 19.796C99.5184 19.4227 100.293 18.7507 101.077 17.78V9.576C101.077 8.92267 101.049 8.54 100.993 8.428C100.937 8.29733 100.76 8.22267 100.461 8.204L98.3611 8.064V7.364H102.757V18.788C102.757 19.4413 102.785 19.824 102.841 19.936C102.897 20.048 103.074 20.1227 103.373 20.16L104.913 20.3ZM113.473 7.924C112.335 7.924 111.439 8.344 110.785 9.184C110.151 10.0053 109.833 11.3867 109.833 13.328V15.008C109.833 16.9307 110.132 18.3213 110.729 19.18C111.345 20.02 112.353 20.44 113.753 20.44C114.649 20.44 115.368 20.2253 115.909 19.796C116.469 19.3667 116.871 18.6107 117.113 17.528L118.401 17.892C118.065 19.1427 117.44 20.02 116.525 20.524C115.629 21.028 114.659 21.28 113.613 21.28C111.709 21.28 110.281 20.664 109.329 19.432C108.396 18.1813 107.929 16.52 107.929 14.448V13.888C107.929 11.8347 108.396 10.192 109.329 8.96C110.281 7.70933 111.663 7.084 113.473 7.084C114.593 7.084 115.527 7.308 116.273 7.756C117.039 8.18533 117.589 8.78267 117.925 9.548C118.261 10.2947 118.355 11.144 118.205 12.096L116.609 12.348C116.815 10.9107 116.647 9.81867 116.105 9.072C115.564 8.30667 114.687 7.924 113.473 7.924ZM132.652 21.14C132.017 21.14 131.495 20.9627 131.084 20.608C130.673 20.2347 130.421 19.7213 130.328 19.068C129.637 19.852 128.891 20.4213 128.088 20.776C127.285 21.112 126.492 21.28 125.708 21.28C124.401 21.28 123.44 20.916 122.824 20.188C122.227 19.4413 121.928 18.5733 121.928 17.584C121.928 16.4827 122.292 15.624 123.02 15.008C123.748 14.392 124.989 14.084 126.744 14.084H130.3V11.816C130.3 10.3227 130.011 9.30533 129.432 8.764C128.853 8.204 128.069 7.924 127.08 7.924C126.445 7.924 125.885 8.036 125.4 8.26C124.915 8.46533 124.56 8.85733 124.336 9.436C124.112 9.996 124.056 10.808 124.168 11.872L122.544 11.592C122.432 10.2853 122.768 9.212 123.552 8.372C124.336 7.51333 125.531 7.084 127.136 7.084C128.424 7.084 129.413 7.308 130.104 7.756C130.813 8.18533 131.299 8.764 131.56 9.492C131.84 10.2013 131.98 10.976 131.98 11.816V18.004C131.98 18.956 132.101 19.5533 132.344 19.796C132.605 20.0387 132.885 20.16 133.184 20.16C133.333 20.16 133.511 20.1227 133.716 20.048C133.921 19.9733 134.127 19.8427 134.332 19.656L134.836 20.328C134.575 20.5707 134.267 20.7667 133.912 20.916C133.557 21.0653 133.137 21.14 132.652 21.14ZM126.184 20.3C126.725 20.3 127.341 20.1507 128.032 19.852C128.741 19.5533 129.497 18.8907 130.3 17.864V14.924H126.968C125.829 14.924 124.999 15.1293 124.476 15.54C123.953 15.932 123.692 16.5667 123.692 17.444C123.692 18.34 123.897 19.04 124.308 19.544C124.719 20.048 125.344 20.3 126.184 20.3ZM142.004 15.092L140.408 14.672C139.344 14.392 138.513 13.944 137.916 13.328C137.337 12.6933 137.048 11.8813 137.048 10.892C137.048 10.2573 137.197 9.65067 137.496 9.072C137.813 8.49333 138.299 8.01733 138.952 7.644C139.624 7.27067 140.473 7.084 141.5 7.084C142.695 7.084 143.647 7.28933 144.356 7.7C145.065 8.092 145.56 8.61467 145.84 9.268C146.139 9.90267 146.232 10.6027 146.12 11.368L144.524 11.648C144.729 10.4347 144.571 9.51067 144.048 8.876C143.525 8.24133 142.667 7.924 141.472 7.924C140.52 7.924 139.764 8.148 139.204 8.596C138.644 9.02533 138.364 9.66933 138.364 10.528C138.364 11.1067 138.551 11.6107 138.924 12.04C139.297 12.4507 139.979 12.7867 140.968 13.048L142.592 13.468C143.749 13.7667 144.683 14.2333 145.392 14.868C146.101 15.5027 146.456 16.3707 146.456 17.472C146.456 18.6107 146.045 19.5347 145.224 20.244C144.403 20.9347 143.264 21.28 141.808 21.28C140.501 21.28 139.4 20.9813 138.504 20.384C137.608 19.7867 137.011 18.956 136.712 17.892L138.084 17.444C138.345 18.5827 138.812 19.376 139.484 19.824C140.175 20.2533 140.968 20.468 141.864 20.468C142.368 20.468 142.872 20.384 143.376 20.216C143.88 20.048 144.3 19.768 144.636 19.376C144.972 18.984 145.14 18.4707 145.14 17.836C145.14 17.2013 144.907 16.66 144.44 16.212C143.973 15.764 143.161 15.3907 142.004 15.092ZM157.396 0.28L158.488 0.699999L148.8 25.004L147.708 24.584L157.396 0.28ZM172.798 12.096L161.542 16.604L161.206 15.68L171.174 11.704L161.206 7.756L161.542 6.804L172.798 11.312V12.096Z" fill="#D6D6D6"/>
</svg>
